HIERARCHY
ROOT Hips
{
  OFFSET 263.056 91.6644 -274.608
  CHANNELS 6 Xposition Yposition Zposition Zrotation Xrotation Yrotation
  JOINT LeftUpLeg
  {
    OFFSET 8.64259 1.95398 -2.38835
    CHANNELS 3 Zrotation Xrotation Yrotation
    JOINT LeftLeg
    {
      OFFSET 43.7702 0 0
      CHANNELS 3 Zrotation Xrotation Yrotation
      JOINT LeftFoot
      {
        OFFSET 40.6238 0 0
        CHANNELS 3 Zrotation Xrotation Yrotation
        JOINT LeftToeBase
        {
          OFFSET 12.7242 0 0
          CHANNELS 3 Zrotation Xrotation Yrotation
          End Site
          {
            OFFSET 0 0 0
          }
        }
      }
    }
  }
  JOINT RightUpLeg
  {
    OFFSET -8.2249 1.95398 -2.59336
    CHANNELS 3 Zrotation Xrotation Yrotation
    JOINT RightLeg
    {
      OFFSET 43.5653 0 0
      CHANNELS 3 Zrotation Xrotation Yrotation
      JOINT RightFoot
      {
        OFFSET 40.6238 0 0
        CHANNELS 3 Zrotation Xrotation Yrotation
        JOINT RightToeBase
        {
          OFFSET 12.7242 0 0
          CHANNELS 3 Zrotation Xrotation Yrotation
          End Site
          {
            OFFSET 0 0 0
          }
        }
      }
    }
  }
  JOINT Spine
  {
    OFFSET 0.165834 0.87714 6.61349
    CHANNELS 3 Zrotation Xrotation Yrotation
    JOINT Spine1
    {
      OFFSET 7.38963 1.71661e-005 0
      CHANNELS 3 Zrotation Xrotation Yrotation
      JOINT Spine2
      {
        OFFSET 11.9445 1.14441e-005 0
        CHANNELS 3 Zrotation Xrotation Yrotation
        JOINT Spine3
        {
          OFFSET 14.7254 4.19617e-005 0
          CHANNELS 3 Zrotation Xrotation Yrotation
          JOINT Spine4
          {
            OFFSET 10.9679 0 0
            CHANNELS 3 Zrotation Xrotation Yrotation
            JOINT RightShoulder
            {
              OFFSET 2.46616 -1.6653 3.69651
              CHANNELS 3 Zrotation Xrotation Yrotation
              JOINT RightArm
              {
                OFFSET 13.0012 0 0
                CHANNELS 3 Zrotation Xrotation Yrotation
                JOINT RightForeArm
                {
                  OFFSET 28.7848 1.52588e-005 0
                  CHANNELS 3 Zrotation Xrotation Yrotation
                  JOINT RightHand
                  {
                    OFFSET 26.5688 1.52588e-005 0
                    CHANNELS 3 Zrotation Xrotation Yrotation
                    End Site
                    {
                      OFFSET 0 0 0
                    }
                  }
                }
              }
            }
            JOINT LeftShoulder
            {
              OFFSET 2.38034 -1.29275 -3.7523
              CHANNELS 3 Zrotation Xrotation Yrotation
              JOINT LeftArm
              {
                OFFSET 16.3182 6.10352e-005 0
                CHANNELS 3 Zrotation Xrotation Yrotation
                JOINT LeftForeArm
                {
                  OFFSET 27.0901 0 0
                  CHANNELS 3 Zrotation Xrotation Yrotation
                  JOINT LeftHand
                  {
                    OFFSET 24.5451 1.52588e-005 0
                    CHANNELS 3 Zrotation Xrotation Yrotation
                    End Site
                    {
                      OFFSET 0 0 0
                    }
                  }
                }
              }
            }
            JOINT Neck
            {
              OFFSET 5.0226 -0.0266342 0
              CHANNELS 3 Zrotation Xrotation Yrotation
              JOINT Head
              {
                OFFSET 6.69364 2.86102e-005 0
                CHANNELS 3 Zrotation Xrotation Yrotation
                End Site
                {
                  OFFSET 0 0 0
                }
              }
            }
          }
        }
      }
    }
  }
}
MOTION
Frames:	15
Frame Time:	0.0416667
26.1886 90.1942 -282.204 33.3744 -78.2813 27.0899 -173.082 -0.563468 84.292 -21.6792 24.9823 -2.20171 62.1483 16.1618 22.5304 52.3213 26.0254 0.689791 -172.988 51.2728 78.9611 135.993 14.1922 -174.164 47.9719 -6.63906 -8.24107 36.922 0.252597 -28.1326 -0.827934 7.94053 -88.9585 10.9998 -1.16566 2.18363 -0.672594 -1.06845 2.23278 -23.2018 -1.76795 1.73252 -3.18919 -1.76795 1.73252 82.7661 -48.3035 -112.394 33.3167 -20.9263 16.2216 -21.2077 -2.19506 -77.4469 -13.0102 0.370335 -9.64632 -99.3796 -42.4815 61.9943 -22.6981 -17.1585 33.9153 20.8067 -12.4348 -125.289 22.9624 -17.3635 -72.482 14.9005 -0.259257 -1.41835 7.59888 0.0495576 -0.804665 
26.1843 89.3408 -283.682 33.8584 -78.0387 27.5198 -174.17 3.69361 83.2841 -28.3982 21.8042 -1.65483 62.6931 18.3979 23.7722 54.3399 28.1045 0.450323 -171.925 52.5256 78.5967 131.771 12.4126 -173.666 47.1238 -6.5656 -8.77763 35.1069 0.571416 -26.0021 -1.04991 8.04882 -88.8901 10.7878 -1.57843 2.35322 -0.884424 -1.47336 2.42037 -23.4165 -2.21258 1.77024 -3.40385 -2.21259 1.77023 81.5384 -50.2471 -113.518 33.2317 -18.5762 20.3091 -21.9601 -2.65487 -77.5619 -17.363 -0.800649 -0.38242 -101.47 -43.1116 59.0265 -21.1714 -16.7894 27.649 26.1769 -13.4259 -117.67 26.0806 -18.2895 -68.9742 16.8135 0.491294 -1.72129 7.06029 0.897054 -0.686494 
26.3909 89.0484 -285.276 33.775 -77.1038 28.5679 -174.762 8.59761 83.4716 -34.2278 20.6429 -1.19569 61.3911 16.0745 22.3783 56.2272 30.5203 1.47355 -174.278 53.0845 80.5019 126.386 13.1404 -174.887 42.3067 -6.28137 -7.96794 33.9412 0.570986 -27.0315 -1.27241 7.99188 -88.9868 10.9081 -2.0647 2.21127 -0.763272 -1.96541 2.29997 -23.3037 -2.63375 1.4885 -3.29107 -2.63375 1.4885 79.825 -51.7795 -115.448 33.196 -17.9364 24.7558 -19.0043 -5.1676 -73.4831 -32.5114 -2.16345 3.66347 -101.624 -42.2668 58.4095 -21.8453 -12.9495 20.5328 34.6114 -13.2814 -107.12 31.1657 -18.3715 -60.767 17.2221 1.31296 -2.10111 6.69944 1.80374 -0.703078 
26.8408 89.1761 -283.804 19.0948 -77.8886 17.3235 -173.72 9.2381 86.3758 -35.8668 20.1702 -1.01871 61.5732 16.0613 22.3945 56.0298 30.8486 2.81977 179.874 52.2088 86.2269 123.183 28.9768 -178.829 33.8853 -9.79139 -8.09696 27.5084 7.22091 -42.1193 -1.09156 7.83847 -89.3059 11.209 -1.84966 1.56387 -0.461694 -1.77905 1.64376 -23.0041 -2.23411 0.935576 -2.99148 -2.23411 0.935554 79.2527 -52.4331 -116.019 34.7524 -18.4904 30.8047 -16.3953 -4.55845 -72.4378 -30.3146 -1.84136 2.59217 -100.479 -40.9611 59.61 -23.7574 -8.45537 15.9829 29.371 -8.54991 -102.085 32.8846 -13.7179 -45.8916 16.3283 2.70143 -2.07032 5.84793 3.12563 -0.712454 
27.0222 89.4386 -279.183 -7.5747 -79.3008 -6.95515 -171.759 5.62746 88.9196 -35.4527 20.2902 -1.65909 60.8197 11.8415 18.9252 54.0468 31.365 9.57242 178.359 50.3997 89.3791 128.267 60.396 175.191 21.2806 -14.8658 -14.8973 28.6116 34.4672 -163.485 -0.728269 7.79375 -89.5193 11.2917 -1.22535 1.07893 -0.379153 -1.17668 1.13179 -22.9173 -1.49296 0.660749 -2.90467 -1.49295 0.66075 80.0085 -52.1138 -115.053 37.0893 -19.2772 36.5344 -16.4452 -4.18985 -72.63 -30.1367 -1.70398 2.09438 -99.0029 -40.144 61.5985 -26.0911 -3.82895 12.8311 18.1107 -6.31086 -104.797 32.4695 -2.06962 -10.6715 15.0113 4.20206 -2.00107 5.88635 4.58026 -0.203727 
27.059 90.1607 -271.852 -14.9571 -79.2502 -12.7082 -171.464 -0.026525 89.9798 -30.0622 20.6603 -0.937312 55.4291 2.66341 10.6943 58.508 37.6735 11.2642 174.964 51.8948 96.2335 -62.2432 46.6607 4.44338 33.1741 -1.58401 -0.692303 65.9554 24.7117 61.2849 -0.782361 7.63336 -89.7376 11.6119 -1.43328 0.671854 -0.058504 -1.40233 0.734285 -22.5998 -1.56893 0.209933 -2.58713 -1.56893 0.209928 80.4002 -51.8855 -114.573 39.0524 -19.2443 42.2908 -18.0205 -3.33102 -74.3295 -28.1403 -1.81592 3.04706 -97.5288 -38.9238 63.47 -27.5595 -0.783362 11.9859 13.3869 -7.22048 -111.716 33.7165 3.77775 7.50053 13.9861 5.50946 -2.4688 5.37285 6.04344 0.92846 
27.0599 90.7468 -263.928 -14.1415 -79.3128 -11.698 -171.995 -6.55165 93.4735 -22.3831 20.8416 0.0428327 44.8673 -7.98946 0.326687 55.4378 38.3621 19.8561 176.196 47.29 95.7637 -48.2761 11.6722 3.07077 64.0305 -1.4676 -0.750977 41.1254 -1.87137 6.3717 -0.949583 7.49713 -89.8868 11.8841 -1.83495 0.422108 0.214374 -1.8146 0.502469 -22.3311 -1.87695 -0.149087 -2.31845 -1.87696 -0.149092 80.4866 -50.954 -114.802 40.0938 -16.6083 46.5893 -18.1135 -2.97182 -74.7731 -27.0738 -1.61995 2.47826 -97.2186 -38.7435 63.9045 -27.4174 -0.0136862 11.9047 13.5021 -9.02832 -117.927 34.0645 3.60862 6.83254 13.1612 6.44065 -2.22189 5.07031 6.93238 1.77592 
26.7202 91.1669 -256.092 -13.4512 -80.641 -10.988 -172.471 -10.7319 93.5669 -21.3076 23.3542 0.705229 36.7722 -14.1839 -3.1811 40.2447 15.01 17.6883 178.532 44.3701 93.9232 -34.9706 14.5519 3.50422 56.6692 0.0830029 0.281406 44.1006 1.63818 9.56439 -1.10123 7.54932 -89.986 11.7796 -2.18347 0.259383 0.110408 -2.16993 0.355271 -22.4392 -2.16044 -0.40915 -2.42654 -2.16042 -0.409137 80.6259 -50.296 -114.852 39.2142 -14.1602 48.0127 -17.11 -2.92721 -74.6625 -25.5381 -1.39707 1.78518 -97.2974 -38.9564 63.8632 -27.4476 1.25991 12.5751 14.3029 -11.3042 -122.576 32.3141 3.38995 6.74408 13.4071 7.15933 -1.80044 3.95234 7.50215 1.64355 
26.4725 90.9461 -248.151 -13.2982 -80.1777 -12.9179 -174.275 -9.62047 91.066 -27.1379 23.3893 0.812517 36.0186 -14.9943 -1.71509 30.978 2.0999 5.00316 -179.432 44.1577 91.6034 -29.6012 11.4395 1.77213 53.6853 1.2893 1.19681 46.4184 1.64309 6.03968 -1.13286 7.36869 -89.8382 12.1437 -2.17531 0.563642 0.47444 -2.14841 0.658872 -22.0754 -2.2441 -0.116519 -2.0627 -2.2441 -0.116514 81.7016 -49.7485 -113.462 38.2877 -11.9263 47.0516 -15.5512 -2.33052 -74.293 -25.1375 -1.11964 0.501063 -97.1381 -38.6967 64.0177 -28.543 3.80913 12.9705 15.904 -13.4369 -124.029 32.3321 3.57532 7.3248 13.026 7.30325 -0.95879 3.7964 7.42354 1.57573 
26.2993 90.5096 -240.656 -15.1306 -81.5392 -16.5135 -174.939 -6.42202 89.2304 -38.1654 19.646 0.585306 40.0033 -12.0349 0.0840451 31.7566 2.96152 6.22266 -179.981 43.8989 90.8632 -35.3255 10.4198 1.49534 57.6835 0.662155 0.682415 38.3965 0.749468 8.21262 -1.0977 7.41746 -89.7495 12.0471 -2.064 0.725399 0.377519 -2.03007 0.815568 -22.1707 -2.18654 0.0712748 -2.15807 -2.18655 0.0712627 82.2488 -49.2104 -112.842 36.6213 -10.1715 44.9382 -15.2735 -2.12945 -74.3059 -24.7364 -1.11262 0.527034 -97.8462 -39.0141 62.9887 -29.9733 5.58764 13.7507 15.8988 -13.2491 -121.745 32.0548 3.2693 6.41114 11.5321 6.94009 0.946652 4.8533 6.58567 0.928623 
26.3568 89.7772 -233.384 -22.0684 -83.599 -23.8429 -174.484 -1.13937 88.4405 -49.9102 16.3974 0.190046 41.8813 -10.8143 1.1586 37.9172 11.0982 12.0792 177.973 42.1224 92.0608 -46.2058 12.9668 1.74877 67.5791 -2.72811 -1.4678 28.6595 -0.669011 10.6931 -0.968336 7.59998 -89.7903 11.6797 -1.82761 0.609557 0.0098966 -1.79901 0.689425 -22.5355 -1.92629 0.0319031 -2.52286 -1.92629 0.0319021 82.3048 -49.4788 -112.659 34.1707 -9.59479 41.4666 -17.0088 -2.52685 -74.2063 -24.9954 -1.12487 0.609764 -98.6815 -39.519 61.8465 -31.6736 6.85642 14.5138 13.9534 -10.8512 -115.573 29.2866 2.50019 4.79117 9.62439 6.6485 2.74315 6.71834 5.88286 0.192939 
26.6374 89.2045 -226.434 -31.9973 -86.1434 -32.8263 -174.114 3.83879 88.7044 -61.0263 12.2841 0.360574 45.4543 -7.729 3.07241 41.7781 16.5236 13.1575 177.148 38.3622 93.2539 -53.2833 12.6914 0.884647 71.0566 -4.23439 -2.19701 34.3783 0.191737 9.27062 -0.889614 7.86052 -89.9225 11.156 -1.73462 0.323754 -0.513784 -1.71868 0.399811 -23.0587 -1.75171 -0.212713 -3.04599 -1.7517 -0.212705 81.2858 -50.6628 -113.737 30.7212 -9.82796 36.365 -17.6958 -3.29182 -73.7094 -24.7708 -1.22272 1.17124 -99.6216 -40.082 60.5805 -33.5914 6.67798 15.848 13.5103 -7.98012 -107.446 32.5441 3.0858 5.68672 7.58229 6.2697 2.70027 8.77375 5.65445 0.864133 
26.6347 88.7526 -219.137 -76.5904 -81.2993 -72.3324 -169.395 11.4279 94.1417 -68.9538 8.88093 -0.602046 49.6409 -4.30914 5.32851 43.2699 18.8629 14.4722 179.273 33.5032 100.029 -54.8041 14.0879 -0.607623 73.3284 -5.46102 -2.67561 40.4711 1.12147 10.0512 0.0558903 8.0449 -90.4893 10.7826 -0.114441 -0.962349 -0.888689 -0.156686 -0.956387 -23.421 0.180057 -0.952249 -3.4084 0.180055 -0.952271 80.61 -50.9558 -114.621 27.1549 -10.5939 29.3664 -17.3903 -3.9683 -72.2471 -24.7569 -1.55581 2.77866 -101.253 -41.9495 58.8426 -34.4368 6.16349 16.8112 15.3762 -5.49634 -97.4089 30.5443 3.22736 6.82797 7.6268 6.03439 3.97069 9.00971 5.09991 0.26501 
26.5376 88.296 -212.073 -85.8297 -80.1342 -80.6185 -168.47 18.7704 94.9276 -73.4238 5.81651 -0.584617 54.1451 -0.854893 6.74795 46.4273 23.1422 14.1109 -179.932 26.8424 101.281 -54.4383 17.2018 -1.32353 80.1396 -8.85986 -3.79128 42.9567 1.58695 11.5085 0.389593 8.21753 -90.6094 10.4399 0.496682 -1.2544 -1.23152 0.440992 -1.27504 -23.7639 0.850706 -1.04716 -3.75124 0.850692 -1.04718 80.5307 -49.9454 -115.129 25.8139 -11.5904 22.1354 -20.1262 -4.8036 -71.4026 -25.0025 -2.09096 5.4229 -101.434 -42.8568 58.9693 -35.9767 7.27682 17.2091 16.4885 -2.26277 -86.8337 33.6231 3.34748 6.22813 8.50681 5.5204 4.31914 7.9286 4.50869 0.460476 
26.1606 88.6583 -205.061 -78.5102 -81.7854 -75.7549 -169.528 26.5672 91.9575 -72.4606 3.8933 -0.543932 56.3424 1.07863 8.12823 49.0146 26.426 13.441 179.049 21.7249 98.3941 -53.0408 18.269 -1.62386 82.8455 -9.90571 -3.98069 47.5122 2.29848 11.0358 0.337105 8.10448 -90.3277 10.6679 0.520462 -0.700253 -1.00313 0.489138 -0.722489 -23.5384 0.70685 -0.511461 -3.52574 0.706851 -0.511468 81.2904 -48.9757 -114.372 26.2337 -12.1034 16.8041 -18.8462 -4.46878 -73.6132 -26.3973 -2.00366 4.43538 -101.167 -42.8448 59.3753 -37.9912 8.2278 19.7027 14.4229 1.11442 -79.3028 38.2388 4.36604 7.52421 8.83465 4.799 3.74623 7.30312 3.91937 0.530882 
